# xmcd
#
# Track frame offsets:
#	150
#	17220
#	30911
#	52019
#	72992
#	84115
#	103446
#	122116
#	139476
#	151971
#	170388
#	187488
#	204914
#
# Disc length: 2985 seconds
#
# Revision: 1
# Processed by: cddbd v1.5.2PL0 Copyright (c) Steve Scherf et al.
# Submitted via: EasyCDDAExtractor 11.1.0.1
#
DISCID=b80ba70d
DTITLE=梁咏琪 - 顺时针(新歌+精选) Disc 2
DYEAR=2005
DGENRE=Pop
TTITLE0=向左走向右转
TTITLE1=透明
TTITLE2=我很好
TTITLE3=短发
TTITLE4=爱情黑盒子
TTITLE5=胆小鬼
TTITLE6=有时候
TTITLE7=新鲜
TTITLE8=全年无休
TTITLE9=当我爱上你
TTITLE10=魔幻季节
TTITLE11=Amour
TTITLE12=爱的代价
EXTD=
EXTT0=
EXTT1=
EXTT2=
EXTT3=
EXTT4=
EXTT5=
EXTT6=
EXTT7=
EXTT8=
EXTT9=
EXTT10=
EXTT11=
EXTT12=
PLAYORDER=
